<svg width="64" height="64" viewBox="0 0 64 64" fill="none" xmlns="http://www.w3.org/2000/svg">
  <rect width="64" height="64" rx="18" fill="#101828"/>
  <path d="M18 35C18 24.5 25.6 17 36.1 17C41.1 17 45.3 18.8 48.5 22L43.7 27.6C41.8 25.7 39.4 24.7 36.4 24.7C30.5 24.7 26.4 28.8 26.4 35C26.4 41.2 30.5 45.3 36.4 45.3C39.7 45.3 42.3 44.1 44.4 41.8L49.2 47.1C45.9 50.9 41.4 53 36 53C25.5 53 18 45.5 18 35Z" fill="url(#paint0_linear)"/>
  <defs>
    <linearGradient id="paint0_linear" x1="18" y1="17" x2="50" y2="53" gradientUnits="userSpaceOnUse">
      <stop stop-color="#7C3AED"/>
      <stop offset="1" stop-color="#06B6D4"/>
    </linearGradient>
  </defs>
</svg>
